<svg height="26" width="26" fill="none" viewBox="0 0 30 30" xmlns="http://www.w3.org/2000/svg">
	<g clipPath="url(#clip0_955_991)">
		<path d="M7.91314 10.8138L6.11133 11.4959L7.31434 21.5983L9.26335 21.9719L10.5952 23.5149L11.1799 25.5288H18.0989L18.911 23.0276L20.6651 21.5983H22.1918L23.4262 8.57242L21.2498 7.76033L19.7555 5.16207L9.85489 8.01212L9.42528 9.25457L7.91314 10.8138Z" fill="#E2EDF9"/>
		<path d="M8.4566 9.51807C8.02777 11.1185 6.38276 12.0682 4.78236 11.6394C3.18196 11.2106 2.23222 9.56556 2.66104 7.96516C3.08987 6.36476 4.73488 5.41501 6.33528 5.84384C7.93568 6.27267 8.88542 7.91768 8.4566 9.51807Z" fill="white"/>
		<path d="M8.45671 9.51828C8.88554 7.91788 7.93579 6.27287 6.33539 5.84404C4.73499 5.41522 3.08998 6.36497 2.66116 7.96536C2.23233 9.56576 3.18208 11.2108 4.78248 11.6396C6.38287 12.0684 8.02789 11.1187 8.45671 9.51828ZM9.9056 9.90651C9.26236 12.3071 6.79485 13.7317 4.39425 13.0885C1.99365 12.4452 0.569029 9.97773 1.21227 7.57713C1.85551 5.17654 4.32302 3.75192 6.72362 4.39515C9.12422 5.03839 10.5488 7.50591 9.9056 9.90651Z" fill="#4F8ACC"/>
		<path d="M26.566 5.37257C26.1371 6.97297 24.4921 7.92271 22.8917 7.49389C21.2913 7.06506 20.3416 5.42005 20.7704 3.81965C21.1992 2.21925 22.8443 1.26951 24.4447 1.69833C26.0451 2.12716 26.9948 3.77217 26.566 5.37257Z" fill="white"/>
		<path d="M24.6636 26.1802C24.2348 27.7806 22.5898 28.7303 20.9894 28.3015C19.389 27.8727 18.4392 26.2277 18.8681 24.6273C19.2969 23.0269 20.9419 22.0771 22.5423 22.5059C24.1427 22.9348 25.0925 24.5798 24.6636 26.1802Z" fill="white"/>
		<path d="M10.2945 26.1802C9.86566 27.7806 8.22065 28.7303 6.62025 28.3015C5.01986 27.8727 4.07011 26.2277 4.49893 24.6273C4.92776 23.0269 6.57277 22.0771 8.17317 22.5059C9.77357 22.9348 10.7233 24.5798 10.2945 26.1802Z" fill="white"/>
		<path d="M26.5661 5.37277C26.9949 3.77237 26.0452 2.12736 24.4448 1.69854C22.8444 1.26971 21.1994 2.21946 20.7705 3.81986C20.3417 5.42025 21.2915 7.06526 22.8919 7.49409C24.4922 7.92292 26.1373 6.97317 26.5661 5.37277ZM28.015 5.761C27.3717 8.1616 24.9042 9.58622 22.5036 8.94298C20.103 8.29974 18.6784 5.83222 19.3216 3.43163C19.9649 1.03103 22.4324 -0.393592 24.833 0.249647C27.2336 0.892885 28.6582 3.3604 28.015 5.761Z" fill="#4F8ACC"/>
		<path d="M24.6637 26.1804C25.0926 24.58 24.1428 22.935 22.5424 22.5062C20.942 22.0773 19.297 23.0271 18.8682 24.6275C18.4394 26.2279 19.3891 27.8729 20.9895 28.3017C22.5899 28.7305 24.2349 27.7808 24.6637 26.1804ZM26.1126 26.5686C25.4694 28.9692 23.0019 30.3938 20.6013 29.7506C18.2007 29.1074 16.7761 26.6398 17.4193 24.2392C18.0625 21.8386 20.5301 20.414 22.9307 21.0573C25.3312 21.7005 26.7559 24.168 26.1126 26.5686Z" fill="#4F8ACC"/>
		<path d="M10.2946 26.1804C10.7234 24.58 9.77368 22.935 8.17328 22.5062C6.57288 22.0773 4.92787 23.0271 4.49905 24.6275C4.07022 26.2279 5.01997 27.8729 6.62037 28.3017C8.22077 28.7305 9.86578 27.7808 10.2946 26.1804ZM11.7435 26.5686C11.1003 28.9692 8.63274 30.3938 6.23214 29.7506C3.83154 29.1074 2.40692 26.6398 3.05016 24.2392C3.6934 21.8386 6.16091 20.414 8.56151 21.0573C10.9621 21.7005 12.3867 24.168 11.7435 26.5686Z" fill="#4F8ACC"/>
		<path d="M18.197 26.2578L11.3227 26.2628L11.3069 24.7627L18.1812 24.7577L18.197 26.2578Z" fill="#4F8ACC"/>
		<path d="M19.9317 5.73778L9.6117 8.51538L9.30141 7.04762L19.6214 4.27002L19.9317 5.73778Z" fill="#4F8ACC"/>
		<path d="M6.23111 21.6995L5.36946 12.5508L6.85698 12.3562L7.71864 21.5049L6.23111 21.6995Z" fill="#4F8ACC"/>
		<path d="M21.5192 21.3857L22.6221 8.62648L24.1187 8.72914L23.0159 21.4884L21.5192 21.3857Z" fill="#4F8ACC"/>
	</g>
	<defs>
		<clipPath id="clip0_955_991">
			<rect height="30" width="30" fill="white"/>
		</clipPath>
	</defs>
</svg>