<svg height="26" width="26" fill="none" viewBox="0 0 30 30" xmlns="http://www.w3.org/2000/svg">
	<g clipPath="url(#clip0_950_754)">
		<path d="M8.67925 14.8696C8.25043 16.47 6.60542 17.4198 5.00502 16.991C3.40462 16.5621 2.45487 14.9171 2.8837 13.3167C3.31252 11.7163 4.95754 10.7666 6.55793 11.1954C8.15833 11.6242 9.10808 13.2692 8.67925 14.8696Z" fill="white"/>
		<path d="M8.67937 14.8698C9.10819 13.2694 8.15845 11.6244 6.55805 11.1956C4.95765 10.7668 3.31264 11.7165 2.88381 13.3169C2.45499 14.9173 3.40473 16.5623 5.00513 16.9912C6.60553 17.42 8.25054 16.4702 8.67937 14.8698ZM10.1283 15.2581C9.48502 17.6587 7.0175 19.0833 4.6169 18.44C2.21631 17.7968 0.791686 15.3293 1.43492 12.9287C2.07816 10.5281 4.54568 9.10348 6.94628 9.74672C9.34687 10.39 10.7715 12.8575 10.1283 15.2581Z" fill="black"/>
		<path d="M10.1343 25.6558C9.70551 27.2562 8.0605 28.2059 6.4601 27.7771C4.8597 27.3483 3.90995 25.7033 4.33878 24.1029C4.7676 22.5025 6.41261 21.5527 8.01301 21.9815C9.61341 22.4104 10.5632 24.0554 10.1343 25.6558Z" fill="white"/>
		<path d="M10.1344 25.656C10.5633 24.0556 9.61352 22.4106 8.01313 21.9817C6.41273 21.5529 4.76772 22.5027 4.33889 24.1031C3.91007 25.7035 4.85981 27.3485 6.46021 27.7773C8.06061 28.2061 9.70562 27.2564 10.1344 25.656ZM11.5833 26.0442C10.9401 28.4448 8.47258 29.8694 6.07198 29.2262C3.67138 28.5829 2.24676 26.1154 2.89 23.7148C3.53324 21.3142 6.00076 19.8896 8.40135 20.5328C10.802 21.1761 12.2266 23.6436 11.5833 26.0442Z" fill="black"/>
		<path d="M25.6597 5.89698C25.2309 7.49738 23.5859 8.44713 21.9855 8.0183C20.3851 7.58948 19.4353 5.94446 19.8642 4.34407C20.293 2.74367 21.938 1.79392 23.5384 2.22275C25.1388 2.65157 26.0885 4.29658 25.6597 5.89698Z" fill="white"/>
		<path d="M25.6598 5.89718C26.0887 4.29679 25.1389 2.65177 23.5385 2.22295C21.9381 1.79412 20.2931 2.74387 19.8643 4.34427C19.4355 5.94467 20.3852 7.58968 21.9856 8.0185C23.586 8.44733 25.231 7.49758 25.6598 5.89718ZM27.1087 6.28541C26.4655 8.68601 23.998 10.1106 21.5974 9.46739C19.1968 8.82415 17.7722 6.35664 18.4154 3.95604C19.0586 1.55544 21.5261 0.130823 23.9267 0.774061C26.3273 1.4173 27.752 3.88482 27.1087 6.28541Z" fill="black"/>
		<path d="M27.1148 16.6831C26.686 18.2835 25.041 19.2333 23.4406 18.8044C21.8402 18.3756 20.8904 16.7306 21.3192 15.1302C21.7481 13.5298 23.3931 12.5801 24.9935 13.0089C26.5939 13.4377 27.5436 15.0827 27.1148 16.6831Z" fill="white"/>
		<path d="M27.1149 16.6833C27.5437 15.0829 26.594 13.4379 24.9936 13.0091C23.3932 12.5803 21.7482 13.53 21.3194 15.1304C20.8905 16.7308 21.8403 18.3758 23.4407 18.8046C25.0411 19.2335 26.6861 18.2837 27.1149 16.6833ZM28.5638 17.0715C27.9206 19.4721 25.453 20.8968 23.0525 20.2535C20.6519 19.6103 19.2272 17.1428 19.8705 14.7422C20.5137 12.3416 22.9812 10.917 25.3818 11.5602C27.7824 12.2034 29.207 14.6709 28.5638 17.0715Z" fill="black"/>
		<path d="M19.9149 7.45489L9.33262 13.0839L8.62829 11.7593L19.2105 6.13031L19.9149 7.45489Z" fill="black"/>
		<path d="M21.3699 18.241L10.7877 23.87L10.0834 22.5455L20.6656 16.9164L21.3699 18.241Z" fill="black"/>
	</g>
	<defs>
		<clipPath id="clip0_950_754">
			<rect height="30" width="30" fill="white"/>
		</clipPath>
	</defs>
</svg>