<svg height="26" width="26" fill="none" viewBox="0 0 30 30" xmlns="http://www.w3.org/2000/svg">
	<g clipPath="url(#clip0_954_903)">
		<path d="M8.67925 14.8696C8.25043 16.47 6.60542 17.4198 5.00502 16.991C3.40462 16.5621 2.45487 14.9171 2.8837 13.3167C3.31252 11.7163 4.95754 10.7666 6.55793 11.1954C8.15833 11.6242 9.10808 13.2692 8.67925 14.8696Z" fill="white"/>
		<path d="M8.67937 14.8698C9.10819 13.2694 8.15845 11.6244 6.55805 11.1956C4.95765 10.7668 3.31264 11.7165 2.88381 13.3169C2.45499 14.9173 3.40473 16.5623 5.00513 16.9912C6.60553 17.42 8.25054 16.4702 8.67937 14.8698ZM10.1283 15.2581C9.48502 17.6587 7.0175 19.0833 4.6169 18.44C2.21631 17.7968 0.791686 15.3293 1.43492 12.9287C2.07816 10.5281 4.54568 9.10348 6.94628 9.74672C9.34687 10.39 10.7715 12.8575 10.1283 15.2581Z" fill="#4F8ACC"/>
		<path d="M25.6597 5.89698C25.2309 7.49738 23.5859 8.44713 21.9855 8.0183C20.3851 7.58948 19.4353 5.94446 19.8642 4.34407C20.293 2.74367 21.938 1.79392 23.5384 2.22275C25.1388 2.65157 26.0885 4.29658 25.6597 5.89698Z" fill="white"/>
		<path d="M21.1988 24.7603C20.77 26.3607 19.1249 27.3104 17.5246 26.8816C15.9242 26.4528 14.9744 24.8077 15.4032 23.2073C15.8321 21.6069 17.4771 20.6572 19.0775 21.086C20.6779 21.5149 21.6276 23.1599 21.1988 24.7603Z" fill="white"/>
		<path d="M25.6598 5.89718C26.0887 4.29679 25.1389 2.65177 23.5385 2.22295C21.9381 1.79412 20.2931 2.74387 19.8643 4.34427C19.4355 5.94467 20.3852 7.58968 21.9856 8.0185C23.586 8.44733 25.231 7.49758 25.6598 5.89718ZM27.1087 6.28541C26.4655 8.68601 23.998 10.1106 21.5974 9.46739C19.1968 8.82415 17.7722 6.35664 18.4154 3.95604C19.0586 1.55544 21.5261 0.130823 23.9267 0.774061C26.3273 1.4173 27.752 3.88482 27.1087 6.28541Z" fill="#4F8ACC"/>
		<path d="M21.1989 24.7605C21.6277 23.1601 20.678 21.5151 19.0776 21.0862C17.4772 20.6574 15.8322 21.6072 15.4033 23.2076C14.9745 24.8079 15.9243 26.453 17.5247 26.8818C19.1251 27.3106 20.7701 26.3609 21.1989 24.7605ZM22.6478 25.1487C22.0045 27.5493 19.537 28.9739 17.1364 28.3307C14.7358 27.6874 13.3112 25.2199 13.9545 22.8193C14.5977 20.4187 17.0652 18.9941 19.4658 19.6373C21.8664 20.2806 23.291 22.7481 22.6478 25.1487Z" fill="#4F8ACC"/>
		<path d="M14.4297 22.2265L7.66157 16.6249L8.60645 15.4596L15.3746 21.0612L14.4297 22.2265Z" fill="#4F8ACC"/>
		<path d="M18.781 20.5256L21.4662 8.00342L22.9384 8.2919L20.2532 20.8141L18.781 20.5256Z" fill="#4F8ACC"/>
	</g>
	<defs>
		<clipPath id="clip0_954_903">
			<rect height="30" width="30" fill="white"/>
		</clipPath>
	</defs>
</svg>