<svg height="26" width="26" fill="none" viewBox="0 0 30 30" xmlns="http://www.w3.org/2000/svg">
	<g clipPath="url(#clip0_951_862)">
		<path d="M25.3341 14.9991C25.3341 25.4127 16.8922 33.8546 6.47859 33.8546C-3.93504 33.8546 -12.377 25.4127 -12.377 14.9991C-12.377 4.58547 -3.93504 -3.85645 6.47859 -3.85645C16.8922 -3.85645 25.3341 4.58547 25.3341 14.9991Z" fill="#E2EDF9"/>
		<path d="M25.3344 15C25.3344 4.74896 17.1534 -3.59241 6.96453 -3.85035L6.47852 -3.85584C-3.93511 -3.85584 -12.3773 4.58637 -12.3773 15L-12.3718 15.486C-12.118 25.513 -4.03578 33.5947 5.99113 33.849L6.47852 33.8558C16.7294 33.8557 25.0695 25.6748 25.3275 15.486L25.3344 15ZM26.7402 15C26.7401 26.1898 17.6684 35.2616 6.47852 35.2617C-4.71146 35.2617 -13.783 26.1899 -13.7832 15C-13.7832 3.80993 -4.71156 -5.26172 6.47852 -5.26172C17.6685 -5.26156 26.7402 3.81002 26.7402 15Z" fill="#79A7DC"/>
		<path d="M26.7402 15C26.7402 3.98503 17.95 -4.97709 7.00195 -5.25488L6.47852 -5.26172C-4.71156 -5.26172 -13.7832 3.80993 -13.7832 15L-13.7764 15.5234C-13.503 26.2975 -4.81904 34.9816 5.95508 35.2549L6.47852 35.2617C17.4937 35.2616 26.4561 26.4709 26.7334 15.5225L26.7402 15ZM6.96484 -3.85059C17.1536 -3.59249 25.334 4.74906 25.334 15L25.3271 15.4863C25.069 25.675 16.7293 33.8553 6.47852 33.8555L5.99121 33.8486C-4.03559 33.5944 -12.1181 25.5132 -12.3721 15.4863L-12.377 15C-12.377 4.58637 -3.93511 -3.85547 6.47852 -3.85547L6.96484 -3.85059ZM6.47559 -3.35547C-3.66055 -3.35389 -11.877 4.86349 -11.877 15L-11.8721 15.4736L-11.8545 15.9297C-11.3782 25.476 -3.60796 33.1016 5.99707 33.3486H5.99805L6.48145 33.3545C16.4573 33.3528 24.5734 25.3935 24.8271 15.4785L24.834 15L24.8281 14.5332C24.5844 4.76889 16.7153 -3.10328 6.95215 -3.35059V-3.35156L6.47559 -3.35547ZM27.2334 15.5361C26.9534 26.5762 18.0547 35.4749 7.01465 35.7549L6.47852 35.7617C-4.80836 35.7617 -13.9918 26.7544 -14.2764 15.5361L-14.2832 15C-14.2832 3.53378 -4.9877 -5.76172 6.47852 -5.76172L7.01465 -5.75488C18.233 -5.47035 27.2402 3.71312 27.2402 15L27.2334 15.5361Z" fill="#79A7DC"/>
		<path d="M28.232 15.7749C27.8032 17.3753 26.1582 18.3251 24.5578 17.8962C22.9574 17.4674 22.0076 15.8224 22.4364 14.222C22.8653 12.6216 24.5103 11.6719 26.1107 12.1007C27.7111 12.5295 28.6608 14.1745 28.232 15.7749Z" fill="white"/>
		<path d="M9.37652 15.7749C8.94769 17.3753 7.30268 18.3251 5.70229 17.8962C4.10189 17.4674 3.15214 15.8224 3.58096 14.222C4.00979 12.6216 5.6548 11.6719 7.2552 12.1007C8.8556 12.5295 9.80535 14.1745 9.37652 15.7749Z" fill="white"/>
		<path d="M17.0098 15.5732C17.0098 9.4404 12.0381 4.46875 5.90527 4.46875C-0.227568 4.46875 -5.19922 9.4404 -5.19922 15.5732C-5.19922 21.7061 -0.227568 26.6777 5.90527 26.6777V28.6777C-1.33214 28.6777 -7.19922 22.8107 -7.19922 15.5732C-7.19922 8.33583 -1.33214 2.46875 5.90527 2.46875C13.1427 2.46875 19.0098 8.33583 19.0098 15.5732C19.0098 22.8107 13.1427 28.6777 5.90527 28.6777V26.6777C12.0381 26.6777 17.0098 21.7061 17.0098 15.5732Z" fill="#BFD5EE"/>
		<path d="M28.2321 15.7751C28.6609 14.1747 27.7112 12.5297 26.1108 12.1009C24.5104 11.6721 22.8654 12.6218 22.4365 14.2222C22.0077 15.8226 22.9575 17.4676 24.5579 17.8964C26.1583 18.3253 27.8033 17.3755 28.2321 15.7751ZM29.681 16.1633C29.0378 18.5639 26.5702 19.9886 24.1696 19.3453C21.769 18.7021 20.3444 16.2346 20.9877 13.834C21.6309 11.4334 24.0984 10.0088 26.499 10.652C28.8996 11.2952 30.3242 13.7627 29.681 16.1633Z" fill="#4F8ACC"/>
		<path d="M9.37663 15.7751C9.80546 14.1747 8.85571 12.5297 7.25531 12.1009C5.65491 11.6721 4.0099 12.6218 3.58108 14.2222C3.15225 15.8226 4.102 17.4676 5.7024 17.8964C7.3028 18.3253 8.94781 17.3755 9.37663 15.7751ZM10.8255 16.1633C10.1823 18.5639 7.71477 19.9886 5.31417 19.3453C2.91357 18.7021 1.48895 16.2346 2.13219 13.834C2.77543 11.4334 5.24294 10.0088 7.64354 10.652C10.0441 11.2952 11.4688 13.7627 10.8255 16.1633Z" fill="#4F8ACC"/>
		<path d="M20.989 15.7193L9.75963 15.6572L9.76771 14.157L20.9971 14.2191L20.989 15.7193Z" fill="#4F8ACC"/>
	</g>
	<defs>
		<clipPath id="clip0_951_862">
			<rect height="30" width="30" fill="white"/>
		</clipPath>
	</defs>
</svg>