<svg width="28" height="28" viewBox="0 0 512 512" fill="none" xmlns="http://www.w3.org/2000/svg">
<path d="M457.942 58.4597C393.773 85.0325 118.64 198.999 42.6182 230.062C-8.36677 249.958 21.4777 268.61 21.4777 268.61C21.4777 268.61 64.9977 283.53 102.302 294.722C139.606 305.914 159.503 293.478 159.503 293.478L334.832 175.344C397.004 133.068 382.084 167.884 367.165 182.804C334.832 215.137 281.364 266.117 236.6 307.153C216.703 324.561 226.651 339.486 235.355 346.946C267.688 374.302 355.972 430.259 360.949 433.991C387.22 452.587 438.891 479.36 446.75 422.799L477.839 227.573C487.787 161.669 497.735 100.736 498.979 83.3275C502.706 41.0517 457.942 58.4597 457.942 58.4597Z" fill="white"/>
</svg>
